<svg xmlns="http://www.w3.org/2000/svg" xmlns:xlink="http://www.w3.org/1999/xlink" viewBox="0 0 62.69 68"><defs><style>.cls-1{fill:none;}.cls-2{clip-path:url(#clip-path);}</style><clipPath id="clip-path"><circle class="cls-1" cx="34" cy="34" r="34"/></clipPath></defs><g id="Слой_2" data-name="Слой 2"><g id="Слой_1-2" data-name="Слой 1"><g class="cls-2"><path d="M34,67.5A33.5,33.5,0,1,1,60,12.86,26.27,26.27,0,0,0,44,7.5a26.5,26.5,0,0,0,0,53,26.22,26.22,0,0,0,16-5.36A33.34,33.34,0,0,1,34,67.5Z"/><path d="M34,1a32.84,32.84,0,0,1,23,9.31,27,27,0,1,0,0,47.38A33,33,0,1,1,34,1m0-1A34,34,0,1,0,62.69,52.24l-.09-.08a26,26,0,1,1-.07-36.39l.12-.07A34,34,0,0,0,34,0Z"/></g></g></g></svg>