<svg xmlns="http://www.w3.org/2000/svg" viewBox="0 0 55.56 62.63"><defs><style>.cls-1{fill:#fff;}</style></defs><g id="Слой_2" data-name="Слой 2"><g id="Слой_1-2" data-name="Слой 1"><circle class="cls-1" cx="27.95" cy="31.41" r="16"/><path class="cls-1" d="M28,9a4.55,4.55,0,0,0,4.5-4.5,4.5,4.5,0,0,0-9,0A4.58,4.58,0,0,0,28,9Z"/><path class="cls-1" d="M27.82,62.63a4.5,4.5,0,1,0-4.5-4.5,4.55,4.55,0,0,0,4.5,4.5Z"/><path class="cls-1" d="M4.61,23.13a4.5,4.5,0,0,0,0-9,4.5,4.5,0,0,0,0,9Z"/><path class="cls-1" d="M51,50.13a4.5,4.5,0,1,0-4.5-4.5,4.55,4.55,0,0,0,4.5,4.5Z"/><path class="cls-1" d="M51.06,23.32a4.5,4.5,0,1,0-4.5-4.5,4.55,4.55,0,0,0,4.5,4.5Z"/><path class="cls-1" d="M4.5,49.94a4.5,4.5,0,0,0,0-9,4.5,4.5,0,0,0,0,9Z"/></g></g></svg>